<svg clip-rule="evenodd" fill-rule="evenodd" stroke-linejoin="round" stroke-miterlimit="1.41421" viewBox="0 0 301 84" xmlns="http://www.w3.org/2000/svg"><g fill-rule="nonzero"><path d="m261.606 10.627c1.998-4.34 5.411-7.921 10.233-9.485 2.463-.799 5.061-1.11 7.657-1.141.271-.001.27-.001.541 0 9.991.119 19.423 7.01 19.999 18.866.026.535.037 1.07.039 1.605v16.922c-.075 2.193-1.164 4.161-3.144 5.274 0 0 3.04 2.24 3.144 5.273 0 11.91 1.986 25.088-7.62 31.764-3.941 2.739-8.939 3.627-13.764 3.469-5.709-.188-11.279-2.784-14.933-7.332v.224c-.042 1.259-.153 1.466-.346 2.009-.732 2.06-2.654 3.635-4.837 3.935-.361.05-.453.044-.817.056h-8.894c-1.018-.034-2.42-.512-2.42-.512-.422.209-.617.29-.617.29-6.647 2.861-14.963.98-19.109-5.275-.05.803-.146 1.014-.297 1.461-.715 2.106-2.674 3.727-4.899 4.02-.346.046-.434.04-.783.051h-9.598c-1.206-.039-1.405-.141-1.928-.318-2.106-.715-3.727-2.674-4.02-4.898-.046-.347-.04-.435-.052-.784v-28.3s-3.287 1.163-5.578 0v28.3c-.039 1.206-.141 1.406-.318 1.929-.715 2.106-2.674 3.727-4.899 4.02-.346.046-.434.04-.783.051h-9.597c-1.207-.039-1.406-.141-1.929-.318-.326-.111-.64-.251-.939-.418-.605.33-1.269.556-1.968.649-.349.046-.438.041-.789.052h-10.899c-2.014-.066-3.814-.925-5.009-2.697-.452-.671-.283.244-.979.94-1.112 1.112-2.666 1.705-4.242 1.757h-9.95c-1.206-.039-1.405-.141-1.928-.318-.642-.218-1.239-.552-1.768-.974-.835.656-1.839 1.101-2.903 1.241-.346.045-.435.04-.783.051h-25.805c-1.206-.039-1.406-.141-1.929-.318-2.105-.715-3.727-2.674-4.02-4.899-.045-.346-.04-.434-.051-.783v-19.652c-3.082 3.81-7.57 6.515-13.051 7.15 0 0-.121 12.502-.121 12.502s-.222 2.708-1.757 4.243c-1.103 1.103-2.064 1.686-4.243 1.757h-9.949c-1.206-.039-1.406-.141-1.929-.318-2.105-.715-3.727-2.674-4.02-4.899-.045-.346-.04-.434-.051-.783v-43.444l-6.317 26.021v17.423s-.222 2.708-1.757 4.243c-1.103 1.103-2.064 1.686-4.243 1.757h-9.949c-1.206-.039-1.405-.141-1.928-.318-2.106-.715-3.728-2.674-4.02-4.899-.046-.346-.04-.434-.052-.783v-17.421l-8.716-35.804-.04.006c-.346.045-.434.04-.783.051h-3.316v53.168s-1.03 5.398-5.217 5.949c-.346.045-.435.04-.783.051h-9.949c-1.207-.039-1.406-.141-1.929-.318-2.106-.715-3.727-2.674-4.02-4.899-.046-.346-.04-.434-.051-.783v-53.168l-3.709-.013c-1.201-.118-1.394-.232-1.904-.444-1.935-.801-3.377-2.666-3.653-4.76-.045-.346-.039-.434-.051-.783v-9.808c.04-1.206.141-1.406.319-1.929.714-2.106 2.673-3.727 4.898-4.02.346-.046.435-.04.783-.051h28.582l.393.012c.62.062.971.122 1.236.194.232-.066.476-.118.733-.153.355-.047.445-.041.802-.053h10.547c.132.004.263.008.395.013 2.414.239 4.548 1.827 5.301 4.101.11.333.121.421.198.764l.891 4.681.891-4.681s.322-1.328.886-2.182c1.09-1.653 3.015-2.631 5.008-2.696h10.547c1.919.064 2.581.363 3.088.759.648-.364 1.362-.61 2.106-.708.346-.046.434-.04.783-.051 4.919 0 9.839-.033 14.758.001 5.388.084 10.802 1.951 14.365 5.946.04-1.159.141-1.361.316-1.876.715-2.106 2.674-3.727 4.899-4.02.346-.046.434-.04.783-.051h25.805c.13.004.261.008.392.012 1.201.119 1.393.233 1.904.444.505.21.977.492 1.404.833.834-.655 1.836-1.098 2.899-1.238.347-.046.435-.04.783-.051 4.92 0 9.839-.033 14.758.001 6.262.098 12.56 2.604 15.946 8.06v-2.026c.039-1.206.14-1.406.318-1.929.715-2.105 2.673-3.727 4.898-4.02.347-.045.435-.04.784-.051h7.839c.13.004.259.008.388.012 1.959.191 3.719 1.274 4.773 2.928l5.386 9.084 5.386-9.084s2.286-2.847 5.161-2.94h7.84c1.206.039 1.406.141 1.929.318 2.105.715 3.727 2.674 4.02 4.899.045.346.04.434.051.783v.317c1.187-1.675 2.721-3.16 4.697-4.401 3.466-2.177 7.665-2.991 11.779-3.04.27-.001.269-.001.54 0 7.365.088 14.431 3.875 17.851 10.626zm-120.344 12.107c-.197.049-.397.086-.599.113-.347.045-.435.04-.783.051h-9.856v19.043h7.641c1.206.04 1.405.141 1.928.319.603.204 1.166.511 1.669.896z" fill="#21262d"/><g fill="#f0f8f9"><path d="m35.149 7.09v9.808h-9.316v59.168h-9.949v-59.168h-9.317v-9.808z"/><path d="m48.86 7.09 6.785 35.648 6.785-35.648h10.547l-12.34 50.836v18.14h-9.949v-18.14l-12.375-50.836z"/><path d="m78.954 7.09h14.484c8.836.023 13.254 4.863 13.254 14.519v21.656c0 7.125-3.176 11.719-9.527 13.782-1.524.492-3.739.738-6.645.738h-1.617v18.281h-9.949zm9.949 9.808v31.043h2.285c1.383 0 2.332-.094 2.848-.281 1.805-.727 2.707-2.191 2.707-4.395v-21.656c0-3.14-1.442-4.711-4.324-4.711z"/><path d="m114.075 7.09h25.805v9.808h-15.856v31.043h13.641v9.844h-13.641v8.473h15.856v9.808h-25.805z"/><path d="m157.212 16.898v31.395h2.285c1.383 0 2.332-.094 2.847-.282 1.805-.726 2.707-2.191 2.707-4.394v-22.008c0-3.14-1.441-4.711-4.324-4.711zm10.828 39.094 10.301 20.074h-10.899l-8.859-18.281h-1.371v18.281h-9.95v-68.976h14.485c8.836.023 13.254 4.863 13.254 14.519v21.656c0 6.094-2.321 10.336-6.961 12.727z"/><path d="m202.352 42.492-8.789-14.977v48.586h-9.597v-68.976h7.839l10.547 17.789 10.547-17.789h7.84v68.976h-9.598v-48.586z"/><path d="m247.809 54.797c-5.625 1.406-8.437 4.312-8.437 8.718 0 3 .668 4.5 2.004 4.5 4.289-.328 6.433-3.515 6.433-9.562zm0-9.457v-24.856c0-3.117-1.429-4.676-4.289-4.676h-.07c-2.883.024-4.324 1.582-4.324 4.676v16.875h-9.95v-16.875c0-9.656 4.77-14.484 14.309-14.484 9.516 0 14.274 4.828 14.274 14.484v55.582h-8.895l-.703-4.254c-2.016 3.563-4.992 5.356-8.93 5.379-3.234 0-5.678-1.219-7.33-3.656-1.652-2.438-2.478-5.426-2.478-8.965 0-11.625 6.128-18.035 18.386-19.23z"/><path d="m294.075 62.672c0 9.656-4.77 14.496-14.309 14.519-9.515 0-14.273-4.84-14.273-14.519v-42.188c0-9.656 4.758-14.484 14.273-14.484 9.539 0 14.309 4.828 14.309 14.484v16.91h-9.949v-16.91c0-3.094-1.442-4.652-4.325-4.676h-.07c-2.859 0-4.289 1.559-4.289 4.676v42.188c0 3.117 1.442 4.675 4.324 4.675 2.907 0 4.36-1.558 4.36-4.675v-4.887h-4.325v-9.844h14.274z"/></g></g></svg>